<?xml version="1.0" encoding="UTF-8"?>
<svg id="Layer_1" xmlns="http://www.w3.org/2000/svg" version="1.1" viewBox="0 0 1024 1024">
  <!-- Generator: Adobe Illustrator 30.4.0, SVG Export Plug-In . SVG Version: 2.1.4 Build 226)  -->
  <path d="M554.6,346.5l17.5-111.6h-112.7l-18.8,202c-.4,3.9-.9,8.6-1.3,14.2-.4,5.6-.8,11.6-1,18-.2,6.4-.5,13-1,19.6-.4,6.7-.6,12.5-.6,17.7h-5.8c-.4-7.3-1-15.5-1.6-24.8-.6-9.2-1.3-17.9-1.9-26.1-.6-8.1-1.2-14.4-1.6-18.7l-18.8-202h-128.9l-24,202c0,2.6-.2,6.5-.6,11.9-.4,5.4-1,11.4-1.6,18-.6,6.7-1.3,13.4-1.9,20.3-.6,6.9-1.2,13.3-1.6,19.3h-5.8c-.4-8.1-1-16.9-1.6-26.4-.6-9.4-1.2-18.1-1.6-26.1-.4-7.9-.9-13.6-1.3-17l-13.6-202h-121.8l69.3,442.6h133.4l23.3-202c.4-4.3,1.1-10.5,1.9-18.7.9-8.1,1.7-16.8,2.6-26.1.9-9.2,1.5-17.5,1.9-24.8h5.8c.4,6.4,1,13.9,1.6,22.5.6,8.6,1.3,17,1.9,25.4.6,8.4,1.2,15.5,1.6,21.6l23.3,202h133.4l.5-3.3-51.3-327.7h102.6Z"/>
  <path d="M808.9,346.5l-18.8,202c-.4,3.9-.9,8.6-1.3,14.2-.4,5.6-.8,11.6-1,18-.2,6.4-.5,13-1,19.6-.4,6.7-.6,12.5-.6,17.7h-5.8c-.4-7.3-1-15.5-1.6-24.8-.6-9.2-1.3-17.9-1.9-26.1-.6-8.1-1.2-14.4-1.6-18.7l-18.8-202h-128.9l-24,202c0,2.6-.2,6.5-.6,11.9-.4,5.4-1,11.4-1.6,18-.6,6.7-1.3,13.4-1.9,20.3-.6,6.9-1.2,13.3-1.6,19.3h-5.8c-.4-8.1-1-16.9-1.6-26.4-.6-9.4-1.2-18.1-1.6-26.1-.4-7.9-.9-13.6-1.3-17l-13.6-202h-19.1l-51.3,327.7,18,114.9h133.4l23.3-202c.4-4.3,1.1-10.5,1.9-18.7.9-8.1,1.7-16.8,2.6-26.1.9-9.2,1.5-17.5,1.9-24.8h5.8c.4,6.4,1,13.9,1.6,22.5.6,8.6,1.3,17,1.9,25.4.6,8.4,1.2,15.5,1.6,21.6l23.3,202h133.4l69.3-442.6h-112.7Z"/>
</svg>